<svg xmlns="http://www.w3.org/2000/svg" viewBox="0 0 96 96" fill="none">
  <rect width="96" height="96" rx="24" fill="#121212" />
  <path d="M0 0h96v96H0z" fill="url(#a)" fill-opacity=".12" />
  <path
    d="M68 22H28c-3.314 0-6 2.686-6 6v40c0 3.314 2.686 6 6 6h40c3.314 0 6-2.686 6-6V28c0-3.314-2.686-6-6-6Z"
    stroke="#F9B923"
    stroke-width="4"
  />
  <path
    d="M34 38.5c4.5-4 9.333-6 14.5-6S58.5 34.5 63 38.5M33 56h11.5c2.5 0 4.5-2.015 4.5-4.5S47 47 44.5 47H33v9Zm14 0H63"
    stroke="#E6A817"
    stroke-linecap="round"
    stroke-linejoin="round"
    stroke-width="5"
  />
  <defs>
    <linearGradient id="a" x1="12" x2="84" y1="8" y2="88" gradientUnits="userSpaceOnUse">
      <stop stop-color="#4A148C" />
      <stop offset="1" stop-color="#F9B923" />
    </linearGradient>
  </defs>
</svg>
